<svg id="visual" viewBox="0 0 900 450" width="900" height="450" xmlns="http://www.w3.org/2000/svg" xmlns:xlink="http://www.w3.org/1999/xlink" version="1.1"><rect x="0" y="0" width="900" height="450" fill="#ffffff"></rect><path d="M0 280L21.5 280.2C43 280.3 86 280.7 128.8 289.2C171.7 297.7 214.3 314.3 257.2 318.5C300 322.7 343 314.3 385.8 311.2C428.7 308 471.3 310 514.2 304.2C557 298.3 600 284.7 642.8 282.2C685.7 279.7 728.3 288.3 771.2 294.8C814 301.3 857 305.7 878.5 307.8L900 310L900 451L878.5 451C857 451 814 451 771.2 451C728.3 451 685.7 451 642.8 451C600 451 557 451 514.2 451C471.3 451 428.7 451 385.8 451C343 451 300 451 257.2 451C214.3 451 171.7 451 128.8 451C86 451 43 451 21.5 451L0 451Z" fill="#874c62"></path><path d="M0 324L21.5 325C43 326 86 328 128.8 329.2C171.7 330.3 214.3 330.7 257.2 331.5C300 332.3 343 333.7 385.8 334.2C428.7 334.7 471.3 334.3 514.2 336.7C557 339 600 344 642.8 340.3C685.7 336.7 728.3 324.3 771.2 321.2C814 318 857 324 878.5 327L900 330L900 451L878.5 451C857 451 814 451 771.2 451C728.3 451 685.7 451 642.8 451C600 451 557 451 514.2 451C471.3 451 428.7 451 385.8 451C343 451 300 451 257.2 451C214.3 451 171.7 451 128.8 451C86 451 43 451 21.5 451L0 451Z" fill="#ae666a"></path><path d="M0 374L21.5 371.3C43 368.7 86 363.3 128.8 358.8C171.7 354.3 214.3 350.7 257.2 347.8C300 345 343 343 385.8 343.5C428.7 344 471.3 347 514.2 345.2C557 343.3 600 336.7 642.8 334C685.7 331.3 728.3 332.7 771.2 335.3C814 338 857 342 878.5 344L900 346L900 451L878.5 451C857 451 814 451 771.2 451C728.3 451 685.7 451 642.8 451C600 451 557 451 514.2 451C471.3 451 428.7 451 385.8 451C343 451 300 451 257.2 451C214.3 451 171.7 451 128.8 451C86 451 43 451 21.5 451L0 451Z" fill="#ce8670"></path><path d="M0 365L21.5 366.8C43 368.7 86 372.3 128.8 377.5C171.7 382.7 214.3 389.3 257.2 389.7C300 390 343 384 385.8 385.7C428.7 387.3 471.3 396.7 514.2 397.7C557 398.7 600 391.3 642.8 385.5C685.7 379.7 728.3 375.3 771.2 376C814 376.7 857 382.3 878.5 385.2L900 388L900 451L878.5 451C857 451 814 451 771.2 451C728.3 451 685.7 451 642.8 451C600 451 557 451 514.2 451C471.3 451 428.7 451 385.8 451C343 451 300 451 257.2 451C214.3 451 171.7 451 128.8 451C86 451 43 451 21.5 451L0 451Z" fill="#e5ab78"></path><path d="M0 393L21.5 395.2C43 397.3 86 401.7 128.8 407.5C171.7 413.3 214.3 420.7 257.2 421.3C300 422 343 416 385.8 416.2C428.7 416.3 471.3 422.7 514.2 425.5C557 428.3 600 427.7 642.8 427.8C685.7 428 728.3 429 771.2 427.2C814 425.3 857 420.7 878.5 418.3L900 416L900 451L878.5 451C857 451 814 451 771.2 451C728.3 451 685.7 451 642.8 451C600 451 557 451 514.2 451C471.3 451 428.7 451 385.8 451C343 451 300 451 257.2 451C214.3 451 171.7 451 128.8 451C86 451 43 451 21.5 451L0 451Z" fill="#f2d388"></path></svg>